<svg xmlns="http://www.w3.org/2000/svg" width="350" height="350" viewBox="0 0 350 350">
  <g id="Group_306" data-name="Group 306" transform="translate(-662 -406)">
    <g id="Ellipse_279" data-name="Ellipse 279" transform="translate(662 406)" fill="#589442" stroke="#707070" stroke-width="1">
      <circle cx="175" cy="175" r="175" stroke="none"/>
      <circle cx="175" cy="175" r="174.5" fill="none"/>
    </g>
    <g id="Layer_2" data-name="Layer 2" transform="translate(677.277 456.113)">
      <g id="Layer_1" data-name="Layer 1" transform="translate(0 -0.01)">
        <path id="Path_1281" data-name="Path 1281" d="M39.46,111.228a110.744,110.744,0,0,1,219.767,0h14.242a124.887,124.887,0,0,0-248.279,0Z" transform="translate(10.365 0.01)" fill="#fff"/>
        <path id="Path_1282" data-name="Path 1282" d="M238.924,130.32a110.73,110.73,0,0,1-187.388,0H35.22a124.831,124.831,0,0,0,220.021,0Z" transform="translate(14.492 53.638)" fill="#fff"/>
        <path id="Path_1283" data-name="Path 1283" d="M214.442,130.32a96.5,96.5,0,0,1-152.891,0H52.8a103.588,103.588,0,0,0,170.393,0Z" transform="translate(21.726 53.638)" fill="#fff"/>
        <path id="Path_1284" data-name="Path 1284" d="M47.47,105.046a96.644,96.644,0,0,1,191.34,0h7.057a103.687,103.687,0,0,0-205.567,0Z" transform="translate(16.582 6.193)" fill="#fff"/>
        <path id="Path_1285" data-name="Path 1285" d="M81.939,87.22c.085,2.188.155,4.234.2,6.352h4.63c0-2.061.113-4.234.2-6.352A16.542,16.542,0,0,0,94.021,76.3c-.113-2-.212-4.023-.325-6.027-.085-1.5-.183-2.978-.268-4.474q-.762-12.59-1.27-24.983a1.129,1.129,0,0,0-1.1-1.186,1.1,1.1,0,0,0-1.016,1.016V66.387A1.314,1.314,0,0,1,88.629,67.8a1.256,1.256,0,0,1-.847-1.186l-.423-26.169a1.129,1.129,0,0,0-.762-.932,1.157,1.157,0,0,0-1.411.762l.085,26.253a1.03,1.03,0,1,1-1.976,0L83.576,40.3a1.157,1.157,0,0,0-1.411-.762,1.129,1.129,0,0,0-.762.932l-.423,26.169a1.242,1.242,0,0,1-.847,1.186c-.55.113-1.327-.48-1.411-1.411V40.642A1.087,1.087,0,0,0,77.7,39.625a1.129,1.129,0,0,0-1.1,1.186Q76.1,53.2,75.333,65.794c-.085,1.5-.169,2.978-.268,4.474-.113,2-.212,4.023-.325,6.027A16.543,16.543,0,0,0,81.8,87.22Z" transform="translate(30.754 16.255)" fill="#fff"/>
        <path id="Path_1286" data-name="Path 1286" d="M111.12,80.743a25.012,25.012,0,0,0,7.354,6.112s1,.621,1.073,3.712c0,.48-.071,3.261-.2,7.622h6.182c-.127-4.361-.212-7.142-.2-7.622,0-3.091,1.073-3.712,1.073-3.712a25.477,25.477,0,0,0,7.368-6.112,25.942,25.942,0,0,0,3.755-6.267c.565-1.3,2.385-5.9,2.018-14.284a45.59,45.59,0,0,0-5.646-21.4c-1.793-3.133-6.267-10.939-11.391-10.53-5.124-.409-9.6,7.4-11.391,10.53a45.774,45.774,0,0,0-5.646,21.4c-.367,8.384,1.411,12.986,2.018,14.284a25.407,25.407,0,0,0,3.628,6.267Z" transform="translate(43.38 11.638)" fill="#fff"/>
        <path id="Path_1287" data-name="Path 1287" d="M157.923,93.934c-.169-4.6-.423-10.755-1.2-18.575-.085-.875-.212-2.117-.311-3.035-.409-3.755-.988-7.678-1.411-12.28,0,0-.55-5.152-1.186-8.384a30.276,30.276,0,0,0-2.823-8.074,18.857,18.857,0,0,0-2.724-3.557l-1.016-.663a10.67,10.67,0,0,0-1.214-.734c-.367-.183-.579.282-.692.79a7.285,7.285,0,0,0-.127,1.143q.127,26.677.268,53.368Z" transform="translate(59.755 15.893)" fill="#fff"/>
        <path id="Path_1288" data-name="Path 1288" d="M144.822,97.75c-4.361,0-6.9,4.15-6.9,9.7s2.625,9.527,6.944,9.527,6.86-4.15,6.86-9.7C151.724,102.154,149.325,97.75,144.822,97.75Z" transform="translate(56.751 40.236)" fill="#fff"/>
        <path id="Path_1289" data-name="Path 1289" d="M50.018,97.87h-.141c-.423,1.694-.847,3.853-1.313,5.5L46.87,109.43h6.309L51.4,103.375C50.949,101.681,50.441,99.564,50.018,97.87Z" transform="translate(19.286 40.285)" fill="#fff"/>
        <path id="Path_1290" data-name="Path 1290" d="M170.012,97.75c-4.361,0-6.9,4.15-6.9,9.7s2.625,9.527,6.944,9.527,6.86-4.15,6.86-9.7C176.886,102.154,174.43,97.75,170.012,97.75Z" transform="translate(67.116 40.236)" fill="#fff"/>
        <path id="Path_1291" data-name="Path 1291" d="M191.823,97.81a13.424,13.424,0,0,0-2.823.268v18.674a11.872,11.872,0,0,0,2.244.127c5.844,0,9.655-3.176,9.655-9.993C200.871,100.9,197.469,97.81,191.823,97.81Z" transform="translate(77.769 40.26)" fill="#fff"/>
        <path id="Path_1292" data-name="Path 1292" d="M0,80.8v67.073H319.445V80.8Zm51.434,24.56H40.467v6.521H50.714v5.251H40.467v11.475H33.988v-28.54H51.434Zm24.221,23.247L73.4,121.281H65.281l-2.033,7.326h-6.69l8.723-28.54H73.75l8.85,28.54Zm22.908.423a18.674,18.674,0,0,1-8.088-1.736l1.27-5.279a16.472,16.472,0,0,0,7.156,1.778c2.964,0,4.531-1.228,4.531-3.091s-1.411-2.823-4.785-4.023c-4.743-1.651-7.834-4.234-7.834-8.469,0-4.87,4.065-8.6,10.8-8.6a17.488,17.488,0,0,1,7.283,1.411l-1.411,5.208a13.564,13.564,0,0,0-5.971-1.411c-2.823,0-4.15,1.27-4.15,2.752,0,1.821,1.609,2.625,5.293,4.023,5.039,1.863,7.41,4.488,7.41,8.469.028,4.9-3.67,9.005-11.5,9.005Zm40.82-23.543h-7.791v23.12h-6.479v-23.12h-7.664v-5.42h21.934Zm39.747-.127H168.163v6.521h10.247v5.251H168.163v11.475h-6.479v-28.54H179.13Zm22.146,23.713c-8.469,0-13.423-6.394-13.423-14.524,0-8.554,5.462-14.948,13.889-14.948,8.765,0,13.55,6.563,13.55,14.439C215.292,123.427,209.618,129.072,201.277,129.072Zm35.527,0c-8.469,0-13.423-6.394-13.423-14.524,0-8.554,5.462-14.948,13.889-14.948,8.765,0,13.55,6.563,13.55,14.439C250.819,123.427,245.145,129.072,236.8,129.072Zm43.911-3.853c-3.006,2.5-7.58,3.684-13.169,3.684a55.885,55.885,0,0,1-7.326-.423V100.448a57.616,57.616,0,0,1,8.723-.593c5.42,0,8.935.974,11.687,3.049,2.964,2.2,4.827,5.716,4.827,10.755C285.457,119.192,283.467,122.89,280.714,125.219Z" transform="translate(0 33.261)" fill="#fff"/>
        <path id="Path_1293" data-name="Path 1293" d="M125.129,131.32H113.583c-.4,10.713-.663,18.039-.663,18.039a6.436,6.436,0,0,0,12.873,0S125.524,142.033,125.129,131.32Zm-5.773,20.918c-1.793,0-3.232-.932-3.232-2.089s1.411-2.1,3.232-2.1,3.232.932,3.232,2.1-1.44,2.089-3.232,2.089Z" transform="translate(46.464 54.049)" fill="#fff"/>
        <path id="Path_1294" data-name="Path 1294" d="M88.045,131.32h-9.88c0,2.287,0,4.305-.085,6.013a5.18,5.18,0,0,0,10.106,0C88.116,135.625,88.087,133.607,88.045,131.32Zm-4.968,7.057c-1.313,0-2.385-.692-2.385-1.539s1.073-1.553,2.385-1.553,2.385.692,2.385,1.553-1.073,1.595-2.385,1.595Z" transform="translate(32.128 54.049)" fill="#fff"/>
        <path id="Path_1295" data-name="Path 1295" d="M154.861,131.32H145.63V137.4a5.011,5.011,0,0,0,4.234,4.065,5.081,5.081,0,0,0,5.378-4.234C155.129,135.258,155,133.3,154.861,131.32Zm-4.418,7.057c-1.313,0-2.371-.692-2.371-1.539s1.059-1.553,2.371-1.553,2.385.692,2.385,1.553-1.03,1.595-2.442,1.595Z" transform="translate(59.923 54.049)" fill="#fff"/>
      </g>
    </g>
  </g>
</svg>
