<svg xmlns="http://www.w3.org/2000/svg" viewBox="0 0 366.44 89.06"><defs><style>.cls-1,.cls-2{fill:#fff;}.cls-2{font-size:15px;font-family:MyriadPro-Regular, Myriad Pro;letter-spacing:1em;}.cls-3{letter-spacing:0.99em;}.cls-4{letter-spacing:1em;}</style></defs><g id="Layer_2" data-name="Layer 2"><g id="Layer_1-2" data-name="Layer 1"><circle class="cls-1" cx="2.47" cy="20.31" r="2.48"/><path class="cls-1" d="M126.52,42.83c-.17.72-.33,1.6-.48,2.63s-.29,2.11-.42,3.22-.23,2.2-.32,3.27-.12,2-.12,2.76H113.93c0-.35,0-.8,0-1.35s.08-1.12.13-1.69.1-1.14.15-1.69.11-1,.16-1.39h-.14c-.68.92-1.38,1.79-2.11,2.64a13.81,13.81,0,0,1-2.42,2.23,11.64,11.64,0,0,1-3,1.55,11.46,11.46,0,0,1-3.78.58,11.14,11.14,0,0,1-4.7-1,9.33,9.33,0,0,1-3.46-2.74,12.62,12.62,0,0,1-2.14-4.38A21,21,0,0,1,92,41.67a26.89,26.89,0,0,1,.37-4.06,26.47,26.47,0,0,1,1.33-5.07,25.75,25.75,0,0,1,2.69-5.27,20,20,0,0,1,4.41-4.73,21.9,21.9,0,0,1,6.51-3.41,27.8,27.8,0,0,1,9-1.3c1.34,0,2.68.05,4,.16s2.67.24,4,.42,2.56.38,3.78.62,2.35.46,3.41.7Zm-9.36-17.11q-1-.09-1.86-.09a10.4,10.4,0,0,0-4.25.81,11,11,0,0,0-3.18,2.11,12.15,12.15,0,0,0-2.27,3,18.5,18.5,0,0,0-1.46,3.35,20.4,20.4,0,0,0-.77,3.33,19.36,19.36,0,0,0-.23,2.84,10.73,10.73,0,0,0,.26,2.41,5.59,5.59,0,0,0,.83,1.92,3.9,3.9,0,0,0,1.39,1.26,3.83,3.83,0,0,0,1.91.46,5.85,5.85,0,0,0,3.57-1.16,11.2,11.2,0,0,0,2.74-3,18.82,18.82,0,0,0,2-4.08,37.39,37.39,0,0,0,1.28-4.48L119,26A14.3,14.3,0,0,0,117.16,25.72Z"/><path class="cls-1" d="M161.22,27.71a16.07,16.07,0,0,0-1.73-.77,21.29,21.29,0,0,0-2.09-.71c-.74-.21-1.49-.38-2.27-.52a11.74,11.74,0,0,0-2.25-.22,5.46,5.46,0,0,0-3.67,1,3.07,3.07,0,0,0-1.11,2.39,2.93,2.93,0,0,0,1.09,2.35,15.66,15.66,0,0,0,2.88,1.83,35.14,35.14,0,0,1,3.7,2,12,12,0,0,1,2.63,2.25A8.26,8.26,0,0,1,160,40.1a10.61,10.61,0,0,1,.53,3.53,11.16,11.16,0,0,1-.88,4.29,10.1,10.1,0,0,1-2.84,3.85,15,15,0,0,1-5.19,2.76,25.35,25.35,0,0,1-7.89,1.06c-.89,0-1.84-.05-2.85-.14s-2-.23-3-.39c-.28-.05-.55-.09-.82-.15q-1-.19-2-.45a20.2,20.2,0,0,1-2.41-.77l1.66-8.47a22.23,22.23,0,0,0,2.1,1q1.2.49,2.55.9a27.88,27.88,0,0,0,2.8.67,16.33,16.33,0,0,0,2.85.26,6.82,6.82,0,0,0,3.92-.91,2.93,2.93,0,0,0,1.28-2.5,3.26,3.26,0,0,0-1-2.34,12.08,12.08,0,0,0-3.42-2.13,28,28,0,0,1-3.53-2,12.41,12.41,0,0,1-2.58-2.25,8.32,8.32,0,0,1-1.58-2.75,10,10,0,0,1-.53-3.41,11.78,11.78,0,0,1,.79-4.13,10.25,10.25,0,0,1,2.62-3.86,13.77,13.77,0,0,1,4.83-2.85,21.52,21.52,0,0,1,7.4-1.11c.89,0,1.81,0,2.75.12s1.85.2,2.74.34,1.73.3,2.53.49,1.5.37,2.11.56Z"/><path class="cls-1" d="M191.38,26.9H183l-2.89,13.47c0,.3-.1.63-.17,1s-.14.7-.19,1-.12.69-.16,1a5.07,5.07,0,0,0-.07.79,2.73,2.73,0,0,0,.7,2.07,3.28,3.28,0,0,0,2.32.67,7,7,0,0,0,1.07-.11c.44-.07.88-.16,1.34-.28s.89-.24,1.32-.37.76-.24,1-.33l-1.73,8.23c-.42.16-.93.32-1.54.49s-1.28.31-2,.46-1.48.25-2.26.35a20.43,20.43,0,0,1-2.31.14,12.48,12.48,0,0,1-4.46-.69,7.08,7.08,0,0,1-2.87-1.9,7,7,0,0,1-1.51-2.83,13.44,13.44,0,0,1-.44-3.51,12.79,12.79,0,0,1,.07-1.3c0-.5.11-1,.19-1.51s.18-1,.29-1.57.2-1,.29-1.46l2.89-13.85h-5.56l2-8.19h5.31l1.83-8.44,11.71-2.88-2.36,11.32h8.54Z"/><polygon class="cls-1" points="32.62 6.14 32.55 6.14 32.55 6.14 32.62 6.14"/><path class="cls-1" d="M32.65,12.11h0Z"/><path class="cls-1" d="M58.37,53.54a1.06,1.06,0,0,1-.11.49C58.3,53.87,58.34,53.71,58.37,53.54Z"/><path class="cls-1" d="M59.86,45.64a.17.17,0,0,1,0,.07.09.09,0,0,0,0-.07Z"/><path class="cls-1" d="M58.37,53.54a1.06,1.06,0,0,1-.11.49C58.3,53.87,58.34,53.71,58.37,53.54Z"/><path class="cls-1" d="M97.67,5.48l-1.87,9a.16.16,0,0,1-.17.13H78.2l-.25.2-.39,1.86-1.8,8.44-.29,1.37a.23.23,0,0,0,.23.3H91.55a.16.16,0,0,1,.17.19l-2,9-.25.2H73.61a.25.25,0,0,0-.25.2l-.31,1.51-1.58,7.49L69.31,55.46a.14.14,0,0,1-.15.13h-11a.24.24,0,0,1-.24-.3c.13-.38.26-.8.38-1.25h0a1.06,1.06,0,0,0,.11-.49h0c0-.93-1.09-1.68-2.46-1.69h0a3.44,3.44,0,0,0-.46,0h0l-9.08.5h-.23c-.59,0-1.13-.67-1.29-1.58a2.37,2.37,0,0,1,1-2.61,1,1,0,0,1,.27-.07h0l.21,0,10,.61.3,0a3.39,3.39,0,0,0,.67-.09l.24-.08.26-.13h0l.05,0A4.66,4.66,0,0,0,59.74,46a.87.87,0,0,0,.08-.25.09.09,0,0,0,0-.07,1.81,1.81,0,0,0-.07-1.34c-.48-.87-1.92-.93-2.79-1L34.24,44h-.49a2.89,2.89,0,0,1-2.7-1.86A2.51,2.51,0,0,1,33.18,39a3.7,3.7,0,0,1,.57-.07h.51l24.79.87a2.17,2.17,0,0,0,2-.5,2.1,2.1,0,0,0,.53-1.18c.1-.52.21-1,.32-1.57.32-1.43.62-2.87.93-4.3a.18.18,0,0,0-.17-.2l-38.71.86a2.11,2.11,0,0,1-2.1-2.27A2.21,2.21,0,0,1,24,28.75h.07q19.55.51,39.07,1a.19.19,0,0,0,.17-.13c.18-.85.35-1.7.54-2.54h0c.08-.31.14-.63.21-.94l.09-.49s0-.06,0-.1,0-.21,0-.31c0-1.13-1.24-2-2.23-2.29a15.25,15.25,0,0,0-2-.21l-46.48.86h-.89c-2.35-.06-4.41-.87-5-2.05-.77-1.49,1-3,4-3.4a9.81,9.81,0,0,1,1.07-.08h.13l.83,0,46.09.95a8.17,8.17,0,0,0,3.64-.55,8,8,0,0,0,1.88-1.06c.31-.37.63-.73.95-1.1a1.39,1.39,0,0,0,.26-.28s0,0,0-.06a2.37,2.37,0,0,0,.42-.82c.89-1.21,1.14-2.56.5-3.47a2.65,2.65,0,0,0-2.61-.87h-.35l-25,.78h-.48a2.91,2.91,0,0,1-2.71-1.85,2.5,2.5,0,0,1,2.13-3.07,4,4,0,0,1,.58-.07H39l.45,0,24.78.85a9,9,0,0,0,2-.1,4.38,4.38,0,0,0,2.19-1.27l.19-1Z"/><path class="cls-1" d="M69.15,35.33v1.38H58.47a.69.69,0,0,1,0-1.38Z"/><path class="cls-1" d="M66.17,26.61V28H55.49a.69.69,0,1,1,0-1.38Z"/><circle class="cls-1" cx="30.07" cy="9.4" r="2.48"/><circle class="cls-1" cx="16.39" cy="30.38" r="2.48"/><circle class="cls-1" cx="26.47" cy="41.71" r="2.48"/><path class="cls-1" d="M272.15,16v-1.6h2.51V12.67a1.23,1.23,0,0,0-1.23-1.23h-6.15a1.23,1.23,0,0,0-1.23,1.23v1.72h2.51V16a19.81,19.81,0,1,0,3.59,0Zm-1.77,36.58h0a16.86,16.86,0,0,1,0-33.71h0a16.86,16.86,0,0,1,0,33.71Z"/><path class="cls-1" d="M273.05,35.71a2.69,2.69,0,0,1-2.67,2.69h0a2.69,2.69,0,0,1-1.26-5.07c.14-1.11.29-2.23.43-3.34.29-2.23.57-4.46.86-6.69q.42,3.35.85,6.69c.13,1.12.28,2.24.42,3.36A2.7,2.7,0,0,1,273.05,35.71Z"/><path class="cls-1" d="M269.82,49.45A13.79,13.79,0,0,1,268.7,22l-.92,7.09a10.36,10.36,0,0,0,2,20.38Z"/><path class="cls-1" d="M215.76,38.78l-2.27,10.67h.25l1.35-6.35.9-4.21Zm2.33-10.87-.16.69-.05.22h.23l.06-.22.14-.69Zm1.46-6.9-1.18,5.52h.24L219.79,21Zm1.38-6.47-1.08,5.09h.22l.37-1.73.72-3.36Z"/><path class="cls-1" d="M230.61,23.92l-.42,1.93h16.35l-.31,1.43L244.5,35.2H228.18l-.89,4.25-2,9.35-.47,2.25-.3,1.43-.48,2.23h-.26L221.66,65H54.19V59.67H211.31l1.89-8.84h-4.34a.69.69,0,0,1,0-1.38h4.88l1.35-6.35.9-4.21-.23-.11a3.78,3.78,0,0,1-.33-.22,1.19,1.19,0,0,0-.79-.26l-10.46.45H204a1.31,1.31,0,0,1-1.14-1.07,1.49,1.49,0,0,1,.89-1.78,1.09,1.09,0,0,1,.25,0h.2l10.38.49a1.17,1.17,0,0,0,.82-.28,4.07,4.07,0,0,1,1.08-.57l1-4.6.16-.72H203.11c-.6,0-1.08-.31-1.08-.68s.48-.69,1.08-.69h15l.06-.22.14-.69h-6.63a.69.69,0,1,1,0-1.38h6.93L219.79,21h-1.74a.69.69,0,1,1,0-1.38h2l.37-1.73.72-3.36.69-3.24a4,4,0,0,1-.42-.22,2.73,2.73,0,0,0-1.4-.36l-18.52.61h-.34a2.14,2.14,0,0,1-2-1.45,2,2,0,0,1,1.58-2.41,3.18,3.18,0,0,1,.43-.06h.05l.33,0,18.36.67a2.61,2.61,0,0,0,1.45-.39,6.87,6.87,0,0,1,1.38-.61l.6-2.8h29.17l-2,9.38H232.8l-.91,4.22-1,4.59Z"/><circle class="cls-1" cx="54.31" cy="62.31" r="2.64"/><circle class="cls-1" cx="47.17" cy="62.31" r="2.48"/><path class="cls-1" d="M337.19,23.48A19.41,19.41,0,0,0,334,17.86a20.27,20.27,0,0,0-3.78,2c-.23.17-.47.32-.69.5s-.34.26-.51.41a18.38,18.38,0,0,0-3.08,3.09A22.31,22.31,0,0,0,323,28.74a24.46,24.46,0,0,0-1.7,5.41c-.11.57-.22,1.13-.29,1.7h0c-.06.34-.13.67-.21,1,0,.16-.06.32-.09.49A17.08,17.08,0,0,1,318.81,42a10.64,10.64,0,0,1-3,3.34l-.09.06-.18.12a7,7,0,0,1-3.94,1.12,5,5,0,0,1-4-1.85A7.64,7.64,0,0,1,306,39.66a20.27,20.27,0,0,1,.19-2.8c.05-.34.09-.67.17-1s.17-.93.29-1.39a17.22,17.22,0,0,1,1.91-4.69,11,11,0,0,1,3.06-3.41,6.84,6.84,0,0,1,4.12-1.31,5.15,5.15,0,0,1,2.38.53l.07,0a28.49,28.49,0,0,1,3.31-5.28,24.47,24.47,0,0,1,2.63-2.85c-.14-.07-.31-.13-.47-.19a19.81,19.81,0,0,0-6.94-1.12,24.6,24.6,0,0,0-7.19,1,21.27,21.27,0,0,0-5.7,2.69,18.93,18.93,0,0,0-4.27,4,22.35,22.35,0,0,0-3,4.88,24.49,24.49,0,0,0-1.71,5.41c-.1.56-.21,1.13-.28,1.7-.05.34-.09.67-.12,1a26.38,26.38,0,0,0-.14,2.8,19.57,19.57,0,0,0,1,6.27,13.77,13.77,0,0,0,3,5,14,14,0,0,0,5.11,3.32,19.84,19.84,0,0,0,7.27,1.22,24.48,24.48,0,0,0,7.37-1c.37-.12.72-.25,1.07-.38s.4-.15.59-.23a19.06,19.06,0,0,0,4.06-2.15l.44-.31c.18-.13.34-.27.51-.41A18.23,18.23,0,0,0,328,47.64a23.49,23.49,0,0,0,2.85-5,26.63,26.63,0,0,0,1.6-5.36c0-.14.06-.31.08-.45.06-.34.1-.68.15-1h.05a13.23,13.23,0,0,1,.3-1.39,17.87,17.87,0,0,1,1.9-4.69A11.35,11.35,0,0,1,338,26.36l.05,0A21.41,21.41,0,0,0,337.19,23.48Z"/><path class="cls-1" d="M331.88,25.47a13.85,13.85,0,0,0-2.35-4.11c-.17-.21-.35-.4-.53-.59a18.38,18.38,0,0,0-3.08,3.09A22.31,22.31,0,0,0,323,28.74a24.46,24.46,0,0,0-1.7,5.41c-.11.57-.22,1.13-.29,1.7h0c-.06.34-.13.67-.21,1,0,.16-.06.32-.09.49A17.08,17.08,0,0,1,318.81,42a10.64,10.64,0,0,1-3,3.34l-.09.06-.18.12a7,7,0,0,1-3.94,1.12,5,5,0,0,1-4-1.85A7.64,7.64,0,0,1,306,39.66a20.27,20.27,0,0,1,.19-2.8c.05-.34.09-.67.17-1s.17-.93.29-1.39a17.22,17.22,0,0,1,1.91-4.69,11,11,0,0,1,3.06-3.41,6.84,6.84,0,0,1,4.12-1.31,5.15,5.15,0,0,1,2.38.53l.07,0a28.49,28.49,0,0,1,3.31-5.28,24.47,24.47,0,0,1,2.63-2.85c-.14-.07-.31-.13-.47-.19a19.81,19.81,0,0,0-6.94-1.12,24.6,24.6,0,0,0-7.19,1,21.27,21.27,0,0,0-5.7,2.69,18.93,18.93,0,0,0-4.27,4,22.35,22.35,0,0,0-3,4.88,24.49,24.49,0,0,0-1.71,5.41c-.1.56-.21,1.13-.28,1.7-.05.34-.09.67-.12,1a26.38,26.38,0,0,0-.14,2.8,19.57,19.57,0,0,0,1,6.27,13.77,13.77,0,0,0,3,5,14,14,0,0,0,5.11,3.32,19.84,19.84,0,0,0,7.27,1.22,24.48,24.48,0,0,0,7.37-1c.37-.12.72-.25,1.07-.38s.4-.15.59-.23a19.06,19.06,0,0,0,4.06-2.15l.44-.31c.18-.13.34-.27.51-.41A18.23,18.23,0,0,0,328,47.64a23.49,23.49,0,0,0,2.85-5,26.63,26.63,0,0,0,1.6-5.36c0-.14.06-.31.08-.45.06-.34.1-.68.15-1A27.41,27.41,0,0,0,333,32,18.35,18.35,0,0,0,331.88,25.47Z"/><path class="cls-1" d="M358.28,25.47a13.84,13.84,0,0,0-3.15-5A14,14,0,0,0,350,17.3a19.75,19.75,0,0,0-6.93-1.12,24.57,24.57,0,0,0-7.2,1c-.47.14-.91.3-1.34.45a6.07,6.07,0,0,0-.59.24,20.27,20.27,0,0,0-3.78,2c-.23.17-.47.32-.69.5s-.34.26-.51.41a18.38,18.38,0,0,0-3.08,3.09A22.31,22.31,0,0,0,323,28.74a24.46,24.46,0,0,0-1.7,5.41c-.11.57-.22,1.13-.29,1.7h0c-.06.34-.13.67-.21,1,0,.16-.06.32-.09.49A17.08,17.08,0,0,1,318.81,42a10.64,10.64,0,0,1-3,3.34l-.09.06a20.07,20.07,0,0,0,.66,2.33,19.25,19.25,0,0,0,3.38,6.13,19.06,19.06,0,0,0,4.06-2.15l.44-.31c.18-.13.34-.27.51-.41A18.23,18.23,0,0,0,328,47.64a23.49,23.49,0,0,0,2.85-5,26.63,26.63,0,0,0,1.6-5.36c0-.14.06-.31.08-.45.06-.34.1-.68.15-1h.05a13.23,13.23,0,0,1,.3-1.39,17.87,17.87,0,0,1,1.9-4.69A11.35,11.35,0,0,1,338,26.36l.05,0,.16-.1a6.72,6.72,0,0,1,3.91-1.18,5.18,5.18,0,0,1,2.38.53A5.08,5.08,0,0,1,346.23,27a6.86,6.86,0,0,1,1.08,2.24,10.59,10.59,0,0,1,.36,2.83,22.47,22.47,0,0,1-.31,3.74h0c-.08.5-.19,1-.31,1.49A16.17,16.17,0,0,1,345.2,42a10.64,10.64,0,0,1-3,3.34,7,7,0,0,1-4.19,1.3,5,5,0,0,1-2.45-.57,28.5,28.5,0,0,1-3,4.93,23.76,23.76,0,0,1-2.88,3.22l.15.06a19.86,19.86,0,0,0,7.28,1.22,24.6,24.6,0,0,0,7.38-1,20.82,20.82,0,0,0,5.7-2.76,18.19,18.19,0,0,0,4.21-4.09,23.44,23.44,0,0,0,2.84-5,26.06,26.06,0,0,0,1.62-5.36c.08-.48.16-1,.22-1.45h0a27.2,27.2,0,0,0,.29-3.88A18.81,18.81,0,0,0,358.28,25.47Z"/><path class="cls-1" d="M358.28,25.47a13.84,13.84,0,0,0-3.15-5A14,14,0,0,0,350,17.3a19.75,19.75,0,0,0-6.93-1.12,24.57,24.57,0,0,0-7.2,1c-.47.14-.91.3-1.34.45a6.07,6.07,0,0,0-.59.24,20.27,20.27,0,0,0-3.78,2c-.23.17-.47.32-.69.5s-.34.26-.51.41a18.38,18.38,0,0,0-3.08,3.09A22.31,22.31,0,0,0,323,28.74a24.46,24.46,0,0,0-1.7,5.41c-.11.57-.22,1.13-.29,1.7h0a27.17,27.17,0,0,0-.26,3.8,19,19,0,0,0,1,6.27,13.71,13.71,0,0,0,2.5,4.49,6.47,6.47,0,0,0,.5.56l0,0A18.23,18.23,0,0,0,328,47.64a23.49,23.49,0,0,0,2.85-5,26.63,26.63,0,0,0,1.6-5.36c0-.14.06-.31.08-.45.06-.34.1-.68.15-1h.05a13.23,13.23,0,0,1,.3-1.39,17.87,17.87,0,0,1,1.9-4.69A11.35,11.35,0,0,1,338,26.36l.05,0,.16-.1a6.72,6.72,0,0,1,3.91-1.18,5.18,5.18,0,0,1,2.38.53A5.08,5.08,0,0,1,346.23,27a6.86,6.86,0,0,1,1.08,2.24,10.59,10.59,0,0,1,.36,2.83,22.47,22.47,0,0,1-.31,3.74h0c-.08.5-.19,1-.31,1.49A16.17,16.17,0,0,1,345.2,42a10.64,10.64,0,0,1-3,3.34,7,7,0,0,1-4.19,1.3,5,5,0,0,1-2.45-.57,28.5,28.5,0,0,1-3,4.93,23.76,23.76,0,0,1-2.88,3.22l.15.06a19.86,19.86,0,0,0,7.28,1.22,24.6,24.6,0,0,0,7.38-1,20.82,20.82,0,0,0,5.7-2.76,18.19,18.19,0,0,0,4.21-4.09,23.44,23.44,0,0,0,2.84-5,26.06,26.06,0,0,0,1.62-5.36c.08-.48.16-1,.22-1.45h0a27.2,27.2,0,0,0,.29-3.88A18.81,18.81,0,0,0,358.28,25.47Z"/><path class="cls-1" d="M354.91,0l-3.45,16.08-.33,1.5-.19,0v.66l-1.52,7.46h.07l-.95,4.26-3.92,19.29h.14c0,.34-.07.8-.13,1.37s-.12,1.17-.18,1.78-.11,1.2-.15,1.77-.05,1-.05,1.38H356c0-.81,0-1.77.13-2.88s.19-2.24.33-3.4.28-2.28.44-3.35.32-2,.49-2.75L366.44,0Z"/><text class="cls-2" transform="translate(123.58 85.31)">DELIVE<tspan class="cls-3" x="133.78" y="0">R</tspan><tspan class="cls-4" x="156.69" y="0">Y</tspan></text></g></g></svg>