<svg xmlns="http://www.w3.org/2000/svg" width="142.25" height="189.333" viewBox="0 0 142.25 189.333">
  <g id="shopping-bag-svgrepo-com" transform="translate(-55.3 -1.5)">
    <path id="Path_9" data-name="Path 9" d="M190.014,162.8l-10.1-121.435a5,5,0,0,0-4.836-4.737H154.286C154,16.368,138.48,0,119.425,0S84.852,16.368,84.564,36.627H63.777a4.974,4.974,0,0,0-4.836,4.737L48.836,162.8c0,.154-.036.308-.036.462,0,13.827,11.873,25.073,26.489,25.073h88.272c14.616,0,26.489-11.246,26.489-25.073A2,2,0,0,0,190.014,162.8ZM119.425,10.4c13.678,0,24.829,11.708,25.118,26.228H94.308C94.6,22.107,105.747,10.4,119.425,10.4Zm44.136,167.536H75.289c-9.166,0-16.6-6.47-16.745-14.443L68.216,47.064H84.528V62.855a4.882,4.882,0,1,0,9.744,0V47.064h50.271V62.855a4.882,4.882,0,1,0,9.744,0V47.064H170.6l9.708,116.428C180.162,171.464,172.692,177.935,163.561,177.935Z" transform="translate(7 2)" fill="#fff" stroke="#fff" stroke-width="3"/>
  </g>
</svg>
